<?xml version="1.0" standalone="no"?>
<!DOCTYPE svg PUBLIC "-//W3C//DTD SVG 20010904//EN"
 "http://www.w3.org/TR/2001/REC-SVG-20010904/DTD/svg10.dtd">
<svg version="1.0" xmlns="http://www.w3.org/2000/svg"
 width="1024.000000pt" height="1024.000000pt" viewBox="0 0 1024.000000 1024.000000"
 preserveAspectRatio="xMidYMid meet">

<g transform="translate(0.000000,1024.000000) scale(0.100000,-0.100000)"
fill="#000000" stroke="none">
<path d="M5058 7910 c-81 -24 -135 -107 -125 -191 13 -106 75 -169 167 -169
105 0 170 69 170 179 0 56 -8 78 -47 126 -47 57 -100 75 -165 55z m109 -62
c39 -36 30 -54 -29 -62 -29 -3 -68 -9 -85 -12 -31 -6 -33 -5 -33 22 0 34 6 44
40 68 31 21 75 15 107 -16z"/>
<path d="M4524 7858 c-41 -10 -89 -66 -98 -112 -9 -49 10 -113 44 -148 24 -24
36 -28 83 -28 98 0 157 68 142 165 -6 43 -40 101 -65 111 -36 15 -77 20 -106
12z m83 -52 c15 -13 25 -27 22 -30 -3 -3 -33 -9 -67 -12 -49 -6 -62 -4 -62 7
0 19 11 34 35 47 29 17 41 15 72 -12z"/>
<path d="M5595 7856 c-16 -7 -41 -26 -55 -41 -22 -23 -25 -36 -25 -102 0 -73
1 -75 37 -109 33 -30 44 -34 90 -34 38 0 49 -3 38 -10 -12 -8 -12 -12 -2 -18
9 -6 6 -15 -12 -37 -14 -16 -23 -31 -20 -34 9 -9 55 46 67 80 7 19 25 56 41
82 24 41 28 56 24 103 -8 100 -96 158 -183 120z m104 -42 c31 -22 17 -33 -57
-40 -67 -7 -78 2 -45 38 20 22 71 23 102 2z"/>
<path d="M4920 7575 c0 -34 34 -100 62 -119 12 -9 36 -15 53 -15 l30 2 -28 4
c-32 5 -72 58 -88 116 -11 42 -29 50 -29 12z"/>
<path d="M4647 7573 c-4 -3 -7 -13 -7 -22 1 -13 3 -13 11 2 11 19 8 33 -4 20z"/>
<path d="M5491 7575 c-1 -19 20 -84 29 -90 5 -3 5 6 0 22 -12 41 -29 79 -29
68z"/>
<path d="M5200 7544 c-6 -14 -14 -22 -20 -19 -5 3 -7 0 -4 -8 3 -9 -8 -25 -28
-41 -18 -14 -27 -26 -20 -26 20 0 68 54 81 90 12 36 4 40 -9 4z"/>
<path d="M4410 7545 c0 -11 9 -33 20 -50 25 -38 25 -29 0 26 -12 27 -20 36
-20 24z"/>
<path d="M5088 7443 c7 -3 16 -2 19 1 4 3 -2 6 -13 5 -11 0 -14 -3 -6 -6z"/>
<path d="M3220 7421 c-119 -38 -181 -86 -246 -187 -70 -110 -100 -235 -91
-381 11 -176 69 -293 222 -448 83 -83 116 -108 190 -147 409 -210 953 -178
1389 83 120 71 284 211 360 307 l50 61 32 -47 c41 -62 208 -220 287 -273 149
-98 425 -209 609 -244 322 -61 691 2 913 155 67 46 174 150 225 217 93 122
146 335 121 484 -43 261 -229 439 -459 439 -64 0 -87 -5 -139 -29 -112 -54
-194 -162 -209 -278 -23 -184 166 -343 317 -267 35 17 79 70 79 95 0 17 -5 18
-60 12 -70 -7 -111 7 -140 47 -40 57 -13 155 56 200 42 29 134 27 199 -4 96
-44 144 -128 145 -249 0 -178 -98 -317 -259 -367 -112 -35 -217 -20 -351 51
-106 57 -199 131 -320 256 -264 271 -461 393 -662 409 -120 10 -181 -6 -328
-88 l-65 -37 -60 40 c-95 62 -141 74 -285 73 -103 0 -136 -4 -190 -23 -155
-54 -281 -140 -419 -286 -150 -158 -211 -213 -315 -283 -145 -99 -218 -127
-331 -127 -64 0 -105 5 -141 19 -155 58 -257 204 -256 368 0 120 45 194 150
248 59 31 156 37 201 13 73 -38 98 -112 62 -185 -28 -59 -69 -82 -129 -73 -26
4 -53 12 -59 17 -22 18 -17 -76 5 -95 37 -34 113 -59 154 -53 57 9 133 51 161
88 61 81 75 223 33 315 -72 153 -271 231 -446 174z m1620 -212 c88 -14 124
-36 128 -78 3 -33 3 -33 -30 -27 -18 4 -83 10 -144 13 -88 4 -124 1 -170 -12
-61 -17 -183 -83 -313 -167 -40 -26 -78 -48 -83 -48 -15 0 1 40 38 95 47 70
88 112 137 136 23 12 54 31 69 42 33 25 169 55 248 56 30 1 84 -4 120 -10z
m693 -3 c68 -11 105 -24 171 -60 137 -75 234 -166 265 -249 13 -33 16 -35 -89
38 -125 86 -232 143 -300 161 -70 19 -224 24 -302 11 l-48 -8 0 31 c0 27 6 34
45 51 88 39 139 44 258 25z"/>
<path d="M3317 7123 c18 -2 50 -2 70 0 21 2 7 4 -32 4 -38 0 -55 -2 -38 -4z"/>
<path d="M6828 7113 c6 -2 18 -2 25 0 6 3 1 5 -13 5 -14 0 -19 -2 -12 -5z"/>
<path d="M3200 7098 c0 -4 -5 -8 -10 -8 -11 0 -70 -63 -65 -69 3 -3 56 37 109
80 5 5 -1 7 -13 6 -11 -1 -21 -5 -21 -9z"/>
<path d="M6677 7098 c-16 -10 30 -9 63 2 22 7 20 8 -13 7 -21 -1 -43 -5 -50
-9z"/>
<path d="M6881 7107 c2 -2 22 -16 44 -31 l40 -28 -32 31 c-18 17 -37 31 -44
31 -7 0 -10 -1 -8 -3z"/>
<path d="M6453 6945 c0 -33 2 -45 4 -27 2 18 2 45 0 60 -2 15 -4 0 -4 -33z"/>
<path d="M3631 6881 c-14 -11 -21 -23 -17 -30 4 -6 4 -11 -1 -10 -19 3 -27 -2
-15 -10 17 -11 -71 -103 -113 -119 -18 -6 -23 -11 -12 -11 29 -1 92 35 122 71
27 32 70 116 63 123 -2 2 -14 -4 -27 -14z"/>
<path d="M6460 6864 c0 -10 5 -26 10 -34 8 -11 9 -7 4 15 -8 37 -14 45 -14 19z"/>
<path d="M3285 6828 c-4 -14 -5 -34 -3 -44 2 -15 5 -14 14 7 6 13 8 33 4 44
-7 18 -8 18 -15 -7z"/>
<path d="M2855 6712 c6 -142 32 -223 111 -339 49 -72 183 -213 203 -213 4 0 8
10 8 22 2 16 0 19 -6 9 -13 -21 -52 26 -45 55 3 12 1 25 -5 29 -6 3 -9 10 -6
15 3 4 1 19 -4 32 -7 15 -10 17 -10 7 -1 -9 -8 -20 -17 -23 -8 -3 -12 -10 -9
-16 3 -5 -1 -10 -9 -10 -8 0 -18 5 -22 12 -5 7 -2 9 7 4 8 -4 4 1 -8 12 -12
11 -19 23 -15 27 4 5 2 5 -4 2 -14 -8 -27 20 -17 35 3 6 1 8 -4 5 -11 -7 -49
42 -45 56 1 5 -2 6 -7 2 -13 -7 -26 20 -36 70 -4 22 -10 45 -15 50 -12 16 -22
62 -36 170 l-13 100 4 -113z m246 -426 c-9 -11 -9 -16 0 -22 8 -5 9 -3 4 6 -5
8 -4 11 3 7 20 -13 8 -37 -19 -37 -13 0 -8 52 6 62 15 11 19 0 6 -16z"/>
<path d="M3556 6795 c-9 -14 -13 -25 -9 -25 12 1 46 50 35 50 -6 0 -17 -11
-26 -25z"/>
<path d="M6480 6803 c0 -5 10 -18 23 -29 l22 -19 -20 25 c-11 14 -21 27 -22
29 -2 2 -3 0 -3 -6z"/>
<path d="M6797 6753 c-11 -13 -17 -27 -14 -30 3 -2 13 7 23 21 22 34 15 42 -9
9z"/>
<path d="M3290 6750 c0 -5 5 -10 11 -10 5 0 7 5 4 10 -3 6 -8 10 -11 10 -2 0
-4 -4 -4 -10z"/>
<path d="M5002 6482 c-19 -20 -36 -35 -39 -32 -3 3 -11 -4 -17 -14 -22 -38
-92 -102 -106 -99 -13 4 -13 3 0 -6 14 -10 7 -15 -13 -12 -4 1 -10 -6 -13 -14
-4 -8 -10 -15 -16 -15 -5 0 -6 5 -2 12 5 7 3 8 -5 4 -7 -5 -10 -11 -7 -14 9
-8 -33 -34 -44 -27 -6 4 -10 3 -9 -2 4 -21 -2 -33 -16 -33 -7 0 -18 -6 -22
-14 -4 -8 -33 -28 -64 -44 -30 -16 -77 -41 -103 -57 -26 -15 -95 -45 -154 -66
-118 -42 -123 -53 -6 -14 95 32 213 90 339 168 72 44 130 91 206 167 88 88
141 150 127 150 -2 0 -18 -17 -36 -38z"/>
<path d="M5060 6516 c0 -2 8 -10 18 -17 15 -13 16 -12 3 4 -13 16 -21 21 -21
13z"/>
<path d="M7170 6447 c-11 -24 -32 -57 -47 -73 -15 -16 -26 -35 -24 -43 1 -9
-3 -12 -13 -8 -9 4 -16 1 -16 -5 0 -10 -138 -149 -185 -187 -10 -8 -49 -30
-87 -48 -38 -19 -68 -37 -65 -39 2 -2 35 11 73 30 111 54 220 148 327 283 20
25 70 133 61 133 -3 0 -14 -19 -24 -43z"/>
<path d="M5140 6424 c49 -50 157 -139 205 -169 37 -23 24 -9 -33 34 -23 18
-40 36 -37 41 3 4 -3 7 -13 6 -9 0 -16 5 -14 12 1 6 -4 12 -10 12 -7 0 -35 25
-63 55 -28 30 -57 55 -65 55 -8 0 6 -21 30 -46z"/>
<path d="M3047 6356 c-3 -8 2 -16 14 -19 17 -5 18 -3 7 11 -7 9 -13 18 -14 20
-1 2 -4 -4 -7 -12z"/>
<path d="M3148 6223 c6 -2 9 -10 6 -15 -4 -7 -2 -8 5 -4 13 9 5 26 -12 25 -9
0 -8 -2 1 -6z"/>
<path d="M6655 6019 c-22 -10 -29 -16 -15 -13 38 10 87 32 70 32 -8 0 -33 -8
-55 -19z"/>
<path d="M5838 6023 c7 -3 16 -2 19 1 4 3 -2 6 -13 5 -11 0 -14 -3 -6 -6z"/>
<path d="M5878 6013 c7 -3 16 -2 19 1 4 3 -2 6 -13 5 -11 0 -14 -3 -6 -6z"/>
<path d="M4238 6003 c7 -3 16 -2 19 1 4 3 -2 6 -13 5 -11 0 -14 -3 -6 -6z"/>
<path d="M5918 6003 c7 -3 16 -2 19 1 4 3 -2 6 -13 5 -11 0 -14 -3 -6 -6z"/>
<path d="M6548 5983 c7 -3 16 -2 19 1 4 3 -2 6 -13 5 -11 0 -14 -3 -6 -6z"/>
<path d="M6443 5963 c9 -2 23 -2 30 0 6 3 -1 5 -18 5 -16 0 -22 -2 -12 -5z"/>
<path d="M3787 5953 c18 -2 50 -2 70 0 21 2 7 4 -32 4 -38 0 -55 -2 -38 -4z"/>
<path d="M6263 5953 c26 -2 68 -2 95 0 26 2 4 3 -48 3 -52 0 -74 -1 -47 -3z"/>
<path d="M1640 5833 c-80 -2 -155 -5 -167 -8 -30 -7 -29 -36 3 -105 l26 -55
-1 -994 c0 -1028 0 -1038 -42 -1163 -24 -72 -25 -126 -3 -135 54 -21 275 190
274 261 -1 19 -1 19 -11 4 -5 -10 -17 -18 -24 -18 -8 0 -15 -4 -15 -9 0 -5 -9
-7 -20 -4 -18 5 -15 11 30 59 l50 53 0 333 c0 371 6 468 26 468 8 0 14 5 14
11 0 6 -7 9 -15 5 -8 -3 -15 -2 -15 2 0 4 40 13 90 20 172 23 336 125 395 246
41 83 48 179 38 468 l-9 256 -34 69 c-75 152 -239 250 -404 241 -23 -1 -106
-4 -186 -5z m266 -269 c43 -8 101 -67 115 -116 7 -27 8 -121 4 -287 -7 -237
-8 -247 -31 -281 -34 -52 -68 -66 -164 -74 l-85 -6 -2 391 -1 392 66 -7 c37
-4 81 -9 98 -12z"/>
<path d="M1965 5365 c5 -16 14 -64 20 -105 9 -50 13 -63 14 -39 1 48 -18 152
-31 164 -7 7 -8 1 -3 -20z"/>
<path d="M2696 5824 c-9 -8 -16 -26 -16 -38 0 -33 -43 -239 -80 -386 -33 -129
-70 -301 -145 -670 -24 -118 -51 -235 -59 -259 -19 -53 -20 -95 -3 -109 14
-12 197 -5 218 9 7 4 16 31 20 61 8 64 26 164 34 186 4 15 23 17 140 17 l135
0 10 -35 c6 -19 18 -75 27 -124 23 -124 30 -131 147 -122 68 5 95 11 109 24
17 18 17 20 -2 65 -20 46 -51 183 -97 427 -14 74 -36 178 -49 230 -13 52 -31
136 -40 185 -9 50 -27 142 -40 205 -13 63 -32 158 -41 210 -24 141 -23 140
-149 140 -81 0 -107 -3 -119 -16z m174 -847 c12 -76 20 -140 18 -142 -1 -2
-44 -1 -94 2 l-91 6 9 36 c21 86 78 378 78 403 0 14 3 35 7 45 8 20 38 -122
73 -350z"/>
<path d="M2807 5039 c9 -67 22 -92 16 -29 -3 30 -9 59 -13 64 -5 5 -6 -11 -3
-35z"/>
<path d="M3381 5823 c-13 -9 -14 -17 -4 -45 8 -24 9 -201 3 -683 -4 -357 -11
-662 -15 -677 -5 -20 -2 -31 15 -48 21 -21 29 -22 112 -16 107 7 144 25 132
65 -10 29 -13 771 -4 771 3 0 10 -12 16 -27 6 -16 48 -125 93 -243 123 -323
202 -508 227 -536 21 -22 31 -24 107 -24 67 0 89 4 107 18 22 18 22 21 10 73
-10 42 -12 150 -8 479 3 234 3 533 -1 665 l-6 240 -99 3 c-55 1 -104 -2 -109
-7 -6 -6 -9 -148 -9 -358 1 -191 -2 -370 -6 -398 l-7 -50 -77 185 c-43 102
-112 273 -153 380 -106 270 -87 247 -208 246 -58 -1 -107 -6 -116 -13z"/>
<path d="M4633 5822 c-135 -48 -221 -154 -243 -300 -7 -43 -10 -220 -8 -483 4
-458 5 -468 71 -565 35 -53 109 -107 172 -127 22 -6 83 -12 135 -12 87 0 101
3 168 34 82 39 143 97 174 168 20 45 55 330 42 342 -3 3 -57 6 -119 6 l-113 0
-7 -110 c-8 -122 -21 -165 -59 -190 -66 -43 -173 -19 -216 49 -19 32 -20 48
-20 451 0 462 -2 448 67 495 26 18 48 24 85 23 95 -1 138 -59 138 -185 l0 -78
28 -1 c133 -4 222 10 222 35 0 7 -7 59 -15 115 -25 162 -79 248 -197 312 -57
30 -72 34 -158 36 -73 3 -107 -1 -147 -15z"/>
<path d="M5395 5833 c-53 -2 -92 -9 -96 -15 -4 -7 0 -28 10 -47 15 -33 16 -86
11 -691 -4 -360 -9 -664 -13 -675 -15 -42 5 -50 116 -49 123 2 152 13 142 52
-4 15 -9 149 -12 297 l-5 270 166 0 166 0 0 -302 c0 -350 -9 -323 111 -323 79
0 145 16 153 36 3 7 -4 34 -15 60 -21 46 -21 56 -15 663 4 339 9 638 12 665 5
35 2 51 -7 57 -8 5 -62 9 -120 9 -120 0 -137 -8 -119 -54 12 -31 13 -172 3
-409 l-6 -167 -164 0 -163 0 0 305 c0 291 -1 305 -19 315 -11 5 -26 9 -33 8
-7 -1 -53 -4 -103 -5z"/>
<path d="M6571 5821 c-14 -26 -56 -207 -80 -343 -25 -141 -128 -639 -177 -853
-47 -206 -52 -250 -27 -263 20 -10 207 -1 219 10 9 10 43 183 43 226 l1 32
139 0 140 0 15 -77 c9 -43 22 -103 29 -133 l12 -55 109 0 c136 0 139 3 108
106 -12 41 -35 153 -51 249 -16 96 -47 247 -69 335 -22 88 -54 234 -71 325
-35 182 -97 428 -113 448 -7 8 -43 12 -114 12 -91 0 -105 -2 -113 -19z m142
-581 c9 -47 27 -139 41 -205 13 -66 26 -139 29 -162 l5 -43 -94 0 -95 0 7 53
c3 28 17 95 29 147 13 52 29 149 36 214 14 130 18 130 42 -4z"/>
<path d="M7528 5833 c-22 -5 -19 3 -74 -258 -25 -121 -64 -303 -85 -405 -22
-102 -57 -273 -79 -380 -21 -107 -51 -235 -65 -284 -14 -49 -25 -99 -23 -110
5 -35 45 -47 128 -40 83 7 120 24 120 56 0 17 15 106 35 203 4 19 11 20 137
17 73 -2 135 -6 137 -8 2 -2 17 -58 33 -126 16 -68 32 -126 37 -131 4 -4 43
-10 87 -13 60 -5 88 -3 117 9 20 9 37 20 37 26 0 5 -9 30 -20 55 -11 26 -24
77 -30 114 -10 62 -57 288 -116 560 -41 191 -114 559 -123 628 -6 36 -15 72
-22 80 -9 11 -36 14 -113 13 -55 -1 -109 -3 -118 -6z m142 -723 c18 -107 36
-205 41 -218 22 -58 17 -62 -81 -62 -109 0 -104 -20 -56 228 19 97 38 202 42
232 9 76 16 54 54 -180z"/>
<path d="M8022 5829 c-14 -5 -17 -21 -18 -105 -1 -73 2 -105 13 -123 l15 -24
159 6 159 6 0 -916 0 -916 41 -56 c23 -31 58 -73 78 -95 27 -29 31 -37 16 -33
-30 9 -58 -17 -53 -47 3 -14 0 -27 -6 -29 -18 -6 11 -48 67 -94 68 -57 84 -56
94 5 4 26 8 524 8 1107 l0 1060 155 5 155 5 -4 110 c-2 61 -8 118 -13 128 -9
17 -34 18 -429 15 -231 -2 -427 -6 -437 -9z"/>
<path d="M1442 5610 c0 -14 2 -19 5 -12 2 6 2 18 0 25 -3 6 -5 1 -5 -13z"/>
<path d="M7982 5585 c-7 -8 -15 -34 -18 -59 -6 -42 -5 -45 24 -60 23 -12 56
-15 129 -14 l98 2 -80 3 c-56 3 -75 7 -65 14 10 6 1 8 -30 4 -25 -2 -37 -2
-27 1 14 5 16 9 6 20 -6 7 -16 11 -22 7 -6 -4 -8 12 -5 46 3 28 5 51 4 51 -1
-1 -7 -7 -14 -15z"/>
<path d="M1452 5555 c0 -16 2 -22 5 -12 2 9 2 23 0 30 -3 6 -5 -1 -5 -18z"/>
<path d="M8820 5551 c0 -6 4 -12 10 -16 5 -3 6 -13 3 -22 -6 -15 -5 -16 9 -3
8 8 13 20 11 27 -2 6 4 13 14 16 10 3 4 5 -14 6 -18 0 -33 -3 -33 -8z"/>
<path d="M8869 5478 c-7 -13 -17 -26 -23 -30 -7 -5 -5 -8 6 -8 9 0 21 13 27
30 12 35 7 39 -10 8z"/>
<path d="M4620 5455 c0 -14 1 -25 3 -25 1 1 25 7 52 15 45 12 47 14 17 14 -18
1 -42 6 -53 11 -16 9 -19 7 -19 -15z"/>
<path d="M8610 5449 c0 -5 26 -9 58 -8 64 1 60 5 -10 12 -27 2 -48 1 -48 -4z"/>
<path d="M8808 5433 c7 -3 16 -2 19 1 4 3 -2 6 -13 5 -11 0 -14 -3 -6 -6z"/>
<path d="M5577 4862 c-9 -2 -15 -8 -12 -13 8 -12 45 -12 45 0 0 13 -12 18 -33
13z"/>
<path d="M3686 4777 c3 -10 9 -15 12 -12 3 3 0 11 -7 18 -10 9 -11 8 -5 -6z"/>
<path d="M2215 4733 c-26 -61 -45 -86 -58 -74 -24 19 -45 -11 -41 -59 2 -28 0
-40 -5 -31 -6 9 -11 10 -15 2 -4 -6 -4 -11 -1 -11 4 0 0 -7 -9 -15 -8 -8 -18
-15 -23 -15 -4 0 -21 -11 -37 -25 -16 -14 -34 -25 -41 -25 -7 0 -26 -7 -43
-16 -24 -12 -39 -13 -69 -5 -21 6 -50 13 -65 16 -16 3 -28 12 -28 20 0 8 -4
15 -10 15 -18 0 -11 -40 8 -41 14 0 14 -2 -3 -8 l-20 -8 20 -5 c16 -5 17 -6 3
-7 -10 0 -18 -5 -18 -11 0 -10 58 -6 144 11 56 11 145 56 199 100 39 32 112
145 127 198 12 42 4 39 -15 -6z m-65 -108 c-4 -5 -9 -13 -9 -17 -2 -18 -16
-11 -16 7 0 29 16 50 26 33 4 -7 4 -17 -1 -23z"/>
<path d="M3780 4549 c0 -8 7 -24 15 -35 18 -24 19 -7 0 26 -9 16 -14 19 -15 9z"/>
<path d="M5083 4422 c-3 -12 -9 -22 -14 -22 -5 0 -9 -4 -9 -10 0 -9 -11 -24
-50 -69 -29 -33 -113 -91 -123 -84 -6 3 -7 1 -3 -5 8 -14 26 -6 92 39 42 28
132 154 120 166 -4 4 -9 -3 -13 -15z"/>
<path d="M7766 4345 c4 -38 13 -83 20 -100 13 -28 14 -24 10 49 -2 43 -8 82
-14 85 -5 3 -12 13 -15 21 -4 8 -4 -16 -1 -55z"/>
<path d="M6821 4364 c0 -11 3 -14 6 -6 3 7 2 16 -1 19 -3 4 -6 -2 -5 -13z"/>
<path d="M3203 4300 c0 -25 2 -35 4 -22 2 12 2 32 0 45 -2 12 -4 2 -4 -23z"/>
<path d="M6831 4320 c0 -14 6 -38 14 -55 l14 -30 -6 30 c-3 17 -10 41 -14 55
l-7 25 -1 -25z"/>
<path d="M7990 4330 c-9 -6 -10 -10 -3 -10 6 0 15 5 18 10 8 12 4 12 -15 0z"/>
<path d="M8031 4311 c6 -18 9 -35 5 -38 -3 -4 -6 0 -6 8 0 8 -6 5 -15 -8 -14
-20 -11 -53 4 -53 31 0 43 87 16 110 -13 11 -13 8 -4 -19z"/>
<path d="M3350 4284 c0 -27 5 -56 10 -64 7 -10 8 4 4 45 -7 75 -14 84 -14 19z"/>
<path d="M3582 4318 c-1 -10 -6 -18 -12 -18 -5 0 -10 -7 -10 -15 0 -8 -9 -24
-20 -35 -12 -12 -15 -22 -9 -26 6 -3 22 5 36 18 19 19 24 33 20 59 -2 19 -5
26 -5 17z"/>
<path d="M7406 4315 c-3 -9 -6 -22 -5 -28 0 -7 5 -1 10 12 5 13 8 26 5 28 -2
2 -6 -3 -10 -12z"/>
<path d="M2360 4301 c-11 -21 -14 -69 -4 -58 7 6 24 77 18 77 -2 0 -8 -9 -14
-19z"/>
<path d="M5290 4301 c-13 -26 -13 -68 1 -77 7 -4 9 0 5 12 -3 11 -2 34 3 52
11 36 7 42 -9 13z"/>
<path d="M5862 4284 c-1 -29 3 -46 16 -55 15 -12 16 -12 5 1 -6 8 -13 33 -16
55 l-4 40 -1 -41z"/>
<path d="M6256 4292 c-9 -18 -14 -38 -10 -44 4 -6 13 3 21 22 19 46 10 63 -11
22z"/>
<path d="M2950 4302 c-1 -31 28 -78 49 -79 11 -1 21 3 21 8 0 6 -4 8 -8 5 -13
-8 -30 8 -46 44 -8 19 -15 29 -16 22z"/>
<path d="M4124 4274 c-37 -53 -39 -57 -15 -45 23 13 44 47 39 63 -2 6 -13 -2
-24 -18z"/>
<path d="M7178 4277 c-3 -19 -2 -25 4 -19 6 6 8 18 6 28 -3 14 -5 12 -10 -9z"/>
<path d="M7380 4255 c-7 -9 -11 -18 -8 -20 3 -3 11 1 18 10 7 9 11 18 8 20 -3
3 -11 -1 -18 -10z"/>
<path d="M4080 4041 c-102 -33 -194 -112 -233 -199 -31 -71 -35 -182 -7 -254
28 -76 101 -155 182 -199 56 -30 72 -33 143 -34 70 0 88 4 139 30 56 29 136
105 136 130 0 14 -35 46 -78 71 -27 15 -36 16 -50 6 -88 -63 -137 -74 -204
-44 -53 23 -83 62 -97 124 -13 58 -1 102 41 146 72 74 132 78 226 16 l54 -35
51 48 c29 26 53 53 55 59 4 16 -70 80 -130 110 -41 21 -70 28 -128 30 -41 2
-86 0 -100 -5z"/>
<path d="M5432 4043 l-153 -4 -10 -26 c-6 -16 -9 -151 -9 -337 1 -213 -2 -310
-9 -308 -14 3 -14 -58 -1 -92 8 -23 15 -26 59 -26 85 0 105 39 125 235 l11
110 125 5 125 5 3 74 c2 53 -1 77 -10 82 -7 5 -68 9 -135 9 l-123 0 0 55 0 56
152 -2 c142 -1 153 0 166 19 23 35 19 98 -8 127 -21 22 -30 25 -89 23 -36 -1
-135 -4 -219 -5z m-28 -688 c-4 -8 -10 -15 -15 -15 -5 0 -9 -7 -9 -15 0 -8 -3
-14 -7 -13 -5 1 -25 -7 -45 -17 -21 -10 -41 -15 -45 -10 -5 4 -3 10 4 12 9 3
9 12 2 29 -5 14 -9 27 -9 29 0 2 24 6 53 8 28 2 57 4 64 5 7 1 10 -4 7 -13z"/>
<path d="M5874 4033 c-18 -19 -25 -599 -7 -635 l14 -28 172 -1 c94 -1 186 -5
202 -9 18 -5 22 -8 11 -9 -23 -1 -58 -40 -52 -58 3 -7 0 -13 -7 -13 -8 0 -8
-3 2 -9 9 -6 -10 -13 -58 -21 -39 -6 -71 -14 -71 -17 0 -10 188 7 214 18 26
12 36 35 36 83 0 21 -4 27 -16 22 -8 -3 -12 -2 -9 4 3 6 12 10 19 10 31 0 50
122 24 148 -8 8 -59 12 -164 12 -85 0 -155 4 -159 9 -3 6 -3 28 1 50 l7 41
133 0 133 0 7 46 c14 94 -13 108 -185 102 l-101 -3 0 26 c0 15 3 40 6 57 6 28
9 30 48 29 22 -1 89 0 148 1 121 2 130 8 132 85 0 30 -5 44 -24 59 -22 18 -37
19 -234 16 -146 -2 -213 -7 -222 -15z"/>
<path d="M4710 3975 c-16 -36 -46 -109 -66 -163 -20 -53 -60 -158 -89 -232
-63 -159 -70 -185 -56 -195 6 -3 9 -11 5 -16 -3 -5 -2 -9 3 -8 33 6 103 -3 98
-12 -4 -6 -13 -8 -21 -5 -7 3 -16 1 -19 -5 -4 -5 -11 -7 -16 -3 -6 3 -26 7
-45 8 -37 2 -49 -17 -42 -65 3 -21 10 -24 47 -27 85 -6 116 22 161 148 13 36
26 68 29 72 3 3 56 8 117 10 l111 3 26 -57 c30 -63 54 -75 130 -63 38 6 40 5
22 -8 -62 -45 -192 -14 -201 48 0 6 -2 16 -2 24 -1 8 -5 12 -8 8 -3 -3 -18 -1
-33 4 -14 6 -51 10 -81 10 -48 0 -57 -3 -77 -28 -13 -15 -23 -30 -23 -33 0 -3
48 -5 107 -5 l108 0 25 -51 c39 -81 41 -82 122 -81 71 2 73 3 96 37 17 26 22
44 18 68 -2 17 -1 32 5 32 17 0 10 22 -46 143 -31 65 -83 187 -116 271 -33 83
-70 169 -82 191 l-23 40 -77 3 -77 3 -30 -66z m139 -273 c11 -29 21 -55 21
-57 0 -3 -27 -5 -61 -5 -33 0 -59 3 -57 8 2 4 16 40 33 81 25 63 30 70 36 50
4 -13 16 -48 28 -77z"/>
<path d="M2607 3961 c-454 -5 -529 -8 -537 -21 -17 -25 -6 -62 23 -84 28 -21
36 -21 630 -23 331 -1 655 1 720 4 l119 6 15 33 c15 30 15 35 -1 58 -15 24
-22 26 -95 26 -43 0 -138 2 -212 3 -74 2 -372 1 -662 -2z"/>
<path d="M6629 3950 c-31 -27 -33 -57 -5 -85 l25 -25 689 0 c682 0 690 0 716
21 33 26 34 63 3 84 -35 22 -1402 27 -1428 5z"/>
<path d="M5686 3862 c-2 -4 0 -14 5 -22 8 -13 10 -13 19 0 5 8 10 18 10 23 0
10 -28 9 -34 -1z"/>
<path d="M4158 3848 c8 -10 2 -13 -29 -12 -21 1 -37 -1 -35 -5 3 -4 -8 -15
-25 -25 -26 -15 -42 -56 -21 -56 18 0 125 49 132 61 10 16 3 36 -17 43 -12 5
-13 3 -5 -6z"/>
<path d="M2058 3833 c-26 -7 -22 -30 8 -49 22 -15 63 -18 280 -22 186 -3 254
-2 254 7 0 9 -86 18 -122 12 -4 0 -31 4 -59 10 -29 6 -102 13 -163 14 -61 2
-118 4 -126 5 -40 4 -60 11 -55 20 3 6 5 9 3 9 -2 -1 -11 -3 -20 -6z"/>
<path d="M4351 3792 c-33 -43 -41 -63 -16 -42 23 19 58 70 52 76 -2 3 -19 -13
-36 -34z"/>
<path d="M6920 3790 c-10 -20 -8 -20 120 -20 115 0 150 7 123 23 -5 3 -58 8
-120 11 -106 6 -113 5 -123 -14z"/>
<path d="M2988 3793 c7 -3 16 -2 19 1 4 3 -2 6 -13 5 -11 0 -14 -3 -6 -6z"/>
<path d="M3038 3788 c6 -6 18 -8 28 -6 14 3 12 5 -9 10 -19 3 -25 2 -19 -4z"/>
<path d="M7605 3790 l-60 -7 68 -1 c39 -1 67 2 67 8 0 6 -3 9 -7 8 -5 -1 -35
-4 -68 -8z"/>
<path d="M3510 3780 l-25 -8 27 -1 c15 -1 30 4 33 9 7 11 0 11 -35 0z"/>
<path d="M6600 3780 c0 -6 7 -13 15 -17 24 -9 27 1 5 15 -13 8 -20 8 -20 2z"/>
<path d="M3091 3776 c7 -8 129 -10 136 -3 3 4 -27 7 -67 7 -40 0 -71 -2 -69
-4z"/>
<path d="M3413 3773 c9 -2 23 -2 30 0 6 3 -1 5 -18 5 -16 0 -22 -2 -12 -5z"/>
<path d="M8330 3671 c0 -67 7 -91 46 -152 19 -31 28 -38 34 -28 10 15 3 32
-11 24 -5 -4 -9 -2 -9 4 0 5 -6 16 -13 23 -18 18 -28 106 -13 111 7 3 6 10 -4
22 -9 11 -10 16 -2 11 6 -4 12 -2 12 3 0 6 -7 11 -16 11 -10 0 -14 6 -10 15 3
8 1 15 -4 15 -6 0 -10 -27 -10 -59z"/>
<path d="M3393 3656 c-42 -19 -65 -57 -67 -107 -1 -34 5 -46 31 -69 37 -34 94
-47 129 -31 33 15 64 69 64 112 0 27 -8 43 -33 67 -39 38 -80 47 -124 28z"/>
<path d="M6763 3663 c-12 -2 -36 -20 -53 -39 -42 -49 -42 -100 2 -143 60 -59
151 -47 185 24 15 32 16 40 3 77 -22 61 -77 93 -137 81z"/>
<path d="M7453 3650 c-42 -25 -63 -68 -63 -127 0 -80 46 -133 115 -133 16 0
31 10 42 28 9 15 34 46 55 69 44 49 49 86 17 127 -44 56 -110 70 -166 36z m42
-205 c28 -13 42 -25 32 -25 -21 0 -55 17 -75 37 -18 18 -15 17 43 -12z"/>
<path d="M2648 3644 c-35 -18 -54 -55 -62 -119 -8 -62 19 -115 58 -115 36 0
37 22 2 48 -37 27 -32 28 19 2 57 -29 88 -26 129 14 30 28 36 40 36 76 0 34
-6 48 -34 76 -28 28 -41 34 -77 34 -24 -1 -56 -7 -71 -16z m-38 -145 c0 -6 -4
-7 -10 -4 -5 3 -10 11 -10 16 0 6 5 7 10 4 6 -3 10 -11 10 -16z"/>
<path d="M3001 3635 c-80 -68 -52 -174 53 -199 63 -15 126 44 126 119 0 29 -7
44 -34 71 -44 44 -99 47 -145 9z"/>
<path d="M7089 3637 c-65 -44 -68 -121 -6 -173 25 -21 38 -25 66 -20 25 4 31
3 21 -4 -8 -5 -25 -10 -38 -10 -15 0 -21 -4 -16 -12 5 -8 1 -9 -12 -4 -15 6
-16 5 -7 -5 22 -22 89 18 141 85 34 44 30 90 -12 132 -41 41 -87 45 -137 11z"/>
<path d="M6215 3610 c3 -6 18 -8 32 -6 40 8 40 16 -1 16 -22 0 -35 -4 -31 -10z"/>
<path d="M3801 3490 c-1 -87 62 -176 158 -224 37 -19 48 -21 48 -10 0 8 -4 14
-9 14 -5 0 -6 6 -2 13 6 8 3 8 -9 -1 -18 -15 -37 -8 -37 13 0 8 7 11 19 8 10
-3 22 0 25 6 5 7 1 8 -9 4 -10 -3 -20 -2 -24 3 -3 5 -18 15 -33 21 -23 10 -26
10 -21 -3 4 -10 0 -12 -11 -8 -9 3 -16 13 -16 21 0 8 -4 12 -8 9 -8 -5 -38 62
-34 77 1 4 -2 7 -8 7 -5 0 -10 12 -11 28 0 15 -4 36 -9 47 -7 15 -9 9 -9 -25z"/>
<path d="M2950 3472 c12 -43 27 -69 46 -76 20 -8 68 -8 88 0 31 12 16 19 -33
16 -44 -3 -50 -1 -70 26 -11 17 -21 35 -21 40 0 6 -4 13 -9 17 -6 3 -6 -6 -1
-23z"/>
<path d="M3311 3470 c-2 -46 24 -70 77 -70 28 1 55 7 67 17 l20 16 -20 -8
c-37 -15 -95 -17 -110 -5 -8 7 -19 27 -24 44 -8 29 -9 29 -10 6z"/>
<path d="M4365 3390 c-4 -6 -11 -8 -16 -5 -5 4 -9 1 -9 -6 0 -7 -3 -10 -6 -6
-4 3 -19 0 -35 -8 -15 -8 -37 -16 -48 -18 -11 -2 -23 -5 -26 -8 -2 -3 -35 -2
-72 3 -69 8 -95 4 -48 -8 20 -5 23 -9 13 -15 -10 -7 -10 -9 2 -9 13 0 13 -1 0
-10 -13 -8 -12 -10 3 -10 10 0 15 -5 12 -11 -4 -6 2 -13 14 -16 23 -6 27 -18
11 -28 -6 -3 -13 1 -16 9 -3 9 -13 16 -21 16 -9 0 -13 -6 -10 -14 3 -8 1 -17
-6 -20 -22 -9 29 -6 89 5 32 6 74 20 92 31 36 22 102 103 102 124 0 16 -16 19
-25 4z"/>
<path d="M5825 3337 c-9 -32 15 -82 38 -81 9 1 14 -2 11 -7 -6 -10 9 -12 19
-2 8 8 -12 35 -22 29 -4 -3 -8 7 -9 20 -1 14 -8 35 -16 46 -15 21 -15 21 -21
-5z"/>
<path d="M5083 3139 c-33 -10 -75 -56 -87 -96 -12 -37 12 -99 49 -132 61 -53
155 -40 197 27 65 106 -38 238 -159 201z"/>
<path d="M4665 3128 c-11 -6 -32 -22 -47 -36 -75 -69 4 -205 106 -182 43 10
62 24 82 61 39 77 -7 169 -86 168 -19 0 -44 -5 -55 -11z"/>
<path d="M5496 3121 c-54 -36 -69 -87 -41 -141 25 -48 63 -71 112 -68 37 1 50
8 78 39 63 70 54 128 -25 170 -44 24 -87 24 -124 0z"/>
<path d="M4280 3097 c-32 -16 -40 -76 -14 -98 26 -21 116 -14 172 14 62 31 63
47 7 75 -51 25 -126 29 -165 9z"/>
<path d="M5861 3099 c-41 -16 -81 -50 -81 -68 0 -42 156 -76 222 -48 37 16 57
50 45 80 -14 37 -128 59 -186 36z"/>
<path d="M4590 2901 c0 -13 29 -41 43 -41 8 0 8 3 2 8 -6 4 -18 15 -28 25 -9
10 -17 14 -17 8z"/>
<path d="M5568 2903 c-14 -2 -28 -10 -31 -17 -4 -10 2 -10 29 -2 19 6 34 14
34 18 0 5 -1 7 -2 7 -2 -1 -15 -4 -30 -6z"/>
<path d="M4695 2880 c-3 -6 1 -7 9 -4 18 7 21 14 7 14 -6 0 -13 -4 -16 -10z"/>
<path d="M5175 2866 c-11 -6 -27 -18 -35 -27 -8 -9 -32 -22 -53 -30 -37 -13
-40 -13 -58 10 -10 13 -19 19 -19 13 0 -19 30 -41 64 -47 43 -9 90 15 112 56
18 36 16 41 -11 25z"/>
</g>
</svg>
